<?xml version="1.0" standalone="no"?>
 <!DOCTYPE svg PUBLIC "-//W3C//DTD SVG 1.1//EN" 
 "http://www.w3.org/Graphics/SVG/1.1/DTD/svg11.dtd"> 
<svg
  xmlns:svg="http://www.w3.org/2000/svg"
  xmlns="http://www.w3.org/2000/svg"
  xmlns:xlink="http://www.w3.org/1999/xlink"
  version="1.1"
  width="297.0022mm" height="210.0072mm" viewBox="0.0000 0.0000 297.0022 210.0072">
<title>SVG Image created as OCD-User_1.svg date 2025/09/20 11:35:28 </title>
  <desc>Image generated by PCBNEW </desc>
<g style="fill:#000000; fill-opacity:1.0000;stroke:#000000; stroke-opacity:1.0000;
stroke-linecap:round; stroke-linejoin:round;"
 transform="translate(0 0) scale(1 1)">
</g>
<g style="fill:none; 
stroke:#000000; stroke-width:0.1000; stroke-opacity:1; 
stroke-linecap:round; stroke-linejoin:round;">
<path d="M56.4500 79.2500
L56.4500 80.7500
" />
<path d="M56.9500 79.2500
L57.2000 79.2500
" />
<path d="M56.9500 80.0000
L57.2000 80.0000
" />
<path d="M56.9500 80.7500
L57.2000 80.7500
" />
<path d="M57.2000 79.0000
L57.2000 79.2500
" />
<path d="M57.2000 79.5000
L57.2000 79.2500
" />
<path d="M57.2000 79.7500
L57.2000 80.0000
" />
<path d="M57.2000 80.2500
L57.2000 80.0000
" />
<path d="M57.2000 80.5000
L57.2000 80.7500
" />
<path d="M57.2000 81.0000
L57.2000 80.7500
" />
<path d="M57.4500 79.2500
L57.2000 79.2500
" />
<path d="M57.4500 80.0000
L57.2000 80.0000
" />
<path d="M57.4500 80.7500
L57.2000 80.7500
" />
<path d="M57.9500 79.2500
L57.9500 80.7500
" />
<path d="M65.0000 79.0000
L65.0000 80.0000
" />
<path d="M65.0000 80.0000
L64.0000 80.0000
" />
<path d="M65.0000 80.0000
L65.0000 81.0000
" />
<path d="M66.0000 80.0000
L65.0000 80.0000
" />
<path d="M57.9500 79.2500 A0.7500 0.7500 0.0 0 0 56.4500 79.2500" />
<path d="M56.4500 80.7500 A0.7500 0.7500 0.0 0 0 57.9500 80.7500" />
<circle cx="65.0000" cy="80.0000" r="4.0000" /> 
<path d="M126.4500 79.2500
L126.4500 80.7500
" />
<path d="M126.9500 79.2500
L127.2000 79.2500
" />
<path d="M126.9500 80.0000
L127.2000 80.0000
" />
<path d="M126.9500 80.7500
L127.2000 80.7500
" />
<path d="M127.2000 79.0000
L127.2000 79.2500
" />
<path d="M127.2000 79.5000
L127.2000 79.2500
" />
<path d="M127.2000 79.7500
L127.2000 80.0000
" />
<path d="M127.2000 80.2500
L127.2000 80.0000
" />
<path d="M127.2000 80.5000
L127.2000 80.7500
" />
<path d="M127.2000 81.0000
L127.2000 80.7500
" />
<path d="M127.4500 79.2500
L127.2000 79.2500
" />
<path d="M127.4500 80.0000
L127.2000 80.0000
" />
<path d="M127.4500 80.7500
L127.2000 80.7500
" />
<path d="M127.9500 79.2500
L127.9500 80.7500
" />
<path d="M135.0000 79.0000
L135.0000 80.0000
" />
<path d="M135.0000 80.0000
L134.0000 80.0000
" />
<path d="M135.0000 80.0000
L135.0000 81.0000
" />
<path d="M136.0000 80.0000
L135.0000 80.0000
" />
<path d="M127.9500 79.2500 A0.7500 0.7500 0.0 0 0 126.4500 79.2500" />
<path d="M126.4500 80.7500 A0.7500 0.7500 0.0 0 0 127.9500 80.7500" />
<circle cx="135.0000" cy="80.0000" r="4.0000" /> 
<path d="M91.4500 79.2500
L91.4500 80.7500
" />
<path d="M91.9500 79.2500
L92.2000 79.2500
" />
<path d="M91.9500 80.0000
L92.2000 80.0000
" />
<path d="M91.9500 80.7500
L92.2000 80.7500
" />
<path d="M92.2000 79.0000
L92.2000 79.2500
" />
<path d="M92.2000 79.5000
L92.2000 79.2500
" />
<path d="M92.2000 79.7500
L92.2000 80.0000
" />
<path d="M92.2000 80.2500
L92.2000 80.0000
" />
<path d="M92.2000 80.5000
L92.2000 80.7500
" />
<path d="M92.2000 81.0000
L92.2000 80.7500
" />
<path d="M92.4500 79.2500
L92.2000 79.2500
" />
<path d="M92.4500 80.0000
L92.2000 80.0000
" />
<path d="M92.4500 80.7500
L92.2000 80.7500
" />
<path d="M92.9500 79.2500
L92.9500 80.7500
" />
<path d="M100.0000 79.0000
L100.0000 80.0000
" />
<path d="M100.0000 80.0000
L99.0000 80.0000
" />
<path d="M100.0000 80.0000
L100.0000 81.0000
" />
<path d="M101.0000 80.0000
L100.0000 80.0000
" />
<path d="M92.9500 79.2500 A0.7500 0.7500 0.0 0 0 91.4500 79.2500" />
<path d="M91.4500 80.7500 A0.7500 0.7500 0.0 0 0 92.9500 80.7500" />
<circle cx="100.0000" cy="80.0000" r="4.0000" /> 
<path d="M108.5500 118.5000
L108.5500 117.0000
" />
<path d="M108.0500 118.5000
L107.8000 118.5000
" />
<path d="M108.0500 117.7500
L107.8000 117.7500
" />
<path d="M108.0500 117.0000
L107.8000 117.0000
" />
<path d="M107.8000 118.7500
L107.8000 118.5000
" />
<path d="M107.8000 118.2500
L107.8000 118.5000
" />
<path d="M107.8000 118.0000
L107.8000 117.7500
" />
<path d="M107.8000 117.5000
L107.8000 117.7500
" />
<path d="M107.8000 117.2500
L107.8000 117.0000
" />
<path d="M107.8000 116.7500
L107.8000 117.0000
" />
<path d="M107.5500 118.5000
L107.8000 118.5000
" />
<path d="M107.5500 117.7500
L107.8000 117.7500
" />
<path d="M107.5500 117.0000
L107.8000 117.0000
" />
<path d="M107.0500 118.5000
L107.0500 117.0000
" />
<path d="M100.0000 118.7500
L100.0000 117.7500
" />
<path d="M100.0000 117.7500
L101.0000 117.7500
" />
<path d="M100.0000 117.7500
L100.0000 116.7500
" />
<path d="M99.0000 117.7500
L100.0000 117.7500
" />
<path d="M107.0500 118.5000 A0.7500 0.7500 0.0 0 0 108.5500 118.5000" />
<path d="M108.5500 117.0000 A0.7500 0.7500 0.0 0 0 107.0500 117.0000" />
<circle cx="100.0000" cy="117.7500" r="4.0000" /> 
<path d="M73.5500 118.5000
L73.5500 117.0000
" />
<path d="M73.0500 118.5000
L72.8000 118.5000
" />
<path d="M73.0500 117.7500
L72.8000 117.7500
" />
<path d="M73.0500 117.0000
L72.8000 117.0000
" />
<path d="M72.8000 118.7500
L72.8000 118.5000
" />
<path d="M72.8000 118.2500
L72.8000 118.5000
" />
<path d="M72.8000 118.0000
L72.8000 117.7500
" />
<path d="M72.8000 117.5000
L72.8000 117.7500
" />
<path d="M72.8000 117.2500
L72.8000 117.0000
" />
<path d="M72.8000 116.7500
L72.8000 117.0000
" />
<path d="M72.5500 118.5000
L72.8000 118.5000
" />
<path d="M72.5500 117.7500
L72.8000 117.7500
" />
<path d="M72.5500 117.0000
L72.8000 117.0000
" />
<path d="M72.0500 118.5000
L72.0500 117.0000
" />
<path d="M65.0000 118.7500
L65.0000 117.7500
" />
<path d="M65.0000 117.7500
L66.0000 117.7500
" />
<path d="M65.0000 117.7500
L65.0000 116.7500
" />
<path d="M64.0000 117.7500
L65.0000 117.7500
" />
<path d="M72.0500 118.5000 A0.7500 0.7500 0.0 0 0 73.5500 118.5000" />
<path d="M73.5500 117.0000 A0.7500 0.7500 0.0 0 0 72.0500 117.0000" />
<circle cx="65.0000" cy="117.7500" r="4.0000" /> 
<path d="M143.5500 118.5000
L143.5500 117.0000
" />
<path d="M143.0500 118.5000
L142.8000 118.5000
" />
<path d="M143.0500 117.7500
L142.8000 117.7500
" />
<path d="M143.0500 117.0000
L142.8000 117.0000
" />
<path d="M142.8000 118.7500
L142.8000 118.5000
" />
<path d="M142.8000 118.2500
L142.8000 118.5000
" />
<path d="M142.8000 118.0000
L142.8000 117.7500
" />
<path d="M142.8000 117.5000
L142.8000 117.7500
" />
<path d="M142.8000 117.2500
L142.8000 117.0000
" />
<path d="M142.8000 116.7500
L142.8000 117.0000
" />
<path d="M142.5500 118.5000
L142.8000 118.5000
" />
<path d="M142.5500 117.7500
L142.8000 117.7500
" />
<path d="M142.5500 117.0000
L142.8000 117.0000
" />
<path d="M142.0500 118.5000
L142.0500 117.0000
" />
<path d="M135.0000 118.7500
L135.0000 117.7500
" />
<path d="M135.0000 117.7500
L136.0000 117.7500
" />
<path d="M135.0000 117.7500
L135.0000 116.7500
" />
<path d="M134.0000 117.7500
L135.0000 117.7500
" />
<path d="M142.0500 118.5000 A0.7500 0.7500 0.0 0 0 143.5500 118.5000" />
<path d="M143.5500 117.0000 A0.7500 0.7500 0.0 0 0 142.0500 117.0000" />
<circle cx="135.0000" cy="117.7500" r="4.0000" /> 
</g> 
</svg>
